<svg width="61" height="33" viewBox="0 0 61 33" fill="none" xmlns="http://www.w3.org/2000/svg">
<path d="M22.8218 26V19.2638H24.8427L24.937 20.7188C25.1076 20.2158 25.3591 19.8251 25.6914 19.5467C26.0327 19.2683 26.4639 19.1291 26.9848 19.1291C27.1554 19.1291 27.2991 19.1425 27.4159 19.1695C27.5416 19.1964 27.6404 19.2324 27.7123 19.2773L27.4833 21.1634C27.3935 21.1275 27.2767 21.1005 27.133 21.0826C26.9983 21.0556 26.8321 21.0422 26.6345 21.0422C26.3651 21.0422 26.1136 21.1005 25.8801 21.2173C25.6465 21.3341 25.4579 21.5092 25.3142 21.7427C25.1795 21.9673 25.1121 22.2547 25.1121 22.605V26H22.8218ZM31.8191 26.1347C31.0736 26.1347 30.4269 25.9955 29.879 25.7171C29.3401 25.4386 28.9225 25.039 28.6261 24.518C28.3297 23.9971 28.1815 23.3684 28.1815 22.6319C28.1815 21.8954 28.3297 21.2667 28.6261 20.7458C28.9225 20.2248 29.3357 19.8251 29.8656 19.5467C30.4045 19.2683 31.0197 19.1291 31.7113 19.1291C32.4208 19.1291 33.0226 19.2683 33.5166 19.5467C34.0196 19.8162 34.4013 20.1934 34.6617 20.6784C34.9222 21.1544 35.0524 21.7023 35.0524 22.322C35.0524 22.4837 35.048 22.6454 35.039 22.807C35.03 22.9687 35.0165 23.1034 34.9986 23.2112H29.6635V21.9852H33.9881L32.8969 22.4029C32.8969 21.864 32.7981 21.4508 32.6005 21.1634C32.4119 20.876 32.1155 20.7323 31.7113 20.7323C31.4239 20.7323 31.1769 20.7997 30.9703 20.9344C30.7727 21.0691 30.62 21.2802 30.5122 21.5676C30.4134 21.855 30.364 22.2232 30.364 22.6723C30.364 23.1124 30.4224 23.4717 30.5392 23.7501C30.656 24.0196 30.8221 24.2172 31.0377 24.3429C31.2532 24.4597 31.5137 24.518 31.8191 24.518C32.1604 24.518 32.4298 24.4507 32.6274 24.3159C32.834 24.1812 32.9867 23.9926 33.0855 23.7501L34.9177 24.3564C34.792 24.7426 34.5719 25.0704 34.2576 25.3399C33.9522 25.6003 33.584 25.7979 33.1528 25.9326C32.7307 26.0674 32.2861 26.1347 31.8191 26.1347ZM38.8126 26.1347C38.2558 26.1347 37.7663 26 37.3441 25.7306C36.931 25.4521 36.6076 25.0524 36.3741 24.5315C36.1496 24.0106 36.0373 23.3864 36.0373 22.6588C36.0373 21.9044 36.1541 21.2667 36.3876 20.7458C36.6301 20.2248 36.9624 19.8251 37.3845 19.5467C37.8157 19.2683 38.3096 19.1291 38.8665 19.1291C39.4773 19.1291 39.9668 19.3177 40.335 19.6949C40.7122 20.0632 40.9547 20.5347 41.0625 21.1095L40.8469 21.3924V16.4076H43.1373V26H41.0895L40.9413 23.7097L41.2107 23.9118C41.1568 24.3609 41.0176 24.7516 40.7931 25.0839C40.5775 25.4162 40.2991 25.6767 39.9578 25.8653C39.6254 26.0449 39.2437 26.1347 38.8126 26.1347ZM39.6075 24.4507C39.868 24.4507 40.088 24.3833 40.2676 24.2486C40.4562 24.1049 40.6 23.8938 40.6988 23.6154C40.7975 23.337 40.8469 22.9957 40.8469 22.5915C40.8469 22.2143 40.7975 21.8954 40.6988 21.6349C40.6089 21.3655 40.4697 21.1634 40.2811 21.0287C40.1015 20.885 39.8814 20.8131 39.621 20.8131C39.2258 20.8131 38.9114 20.9613 38.6779 21.2577C38.4534 21.5451 38.3411 22.0032 38.3411 22.6319C38.3411 23.2606 38.4534 23.7232 38.6779 24.0196C38.9024 24.307 39.2123 24.4507 39.6075 24.4507ZM45.9254 18.4824C45.4584 18.4824 45.1171 18.3971 44.9015 18.2264C44.6949 18.0468 44.5916 17.7684 44.5916 17.3911C44.5916 17.0049 44.6949 16.7265 44.9015 16.5558C45.1171 16.3762 45.4584 16.2864 45.9254 16.2864C46.3835 16.2864 46.7203 16.3762 46.9358 16.5558C47.1514 16.7265 47.2592 17.0049 47.2592 17.3911C47.2592 17.7684 47.1514 18.0468 46.9358 18.2264C46.7203 18.3971 46.3835 18.4824 45.9254 18.4824ZM47.0706 19.2638V26H44.7803V19.2638H47.0706ZM55.774 18.9H51.1799V20.7862H54.8444V22.578H51.1799V26H48.8626V17.1082H55.774V18.9Z" fill="url(#paint0_linear_508_866)"/>
<path d="M58.0953 18.4824C57.6283 18.4824 57.287 18.3971 57.0714 18.2264C56.8648 18.0468 56.7615 17.7684 56.7615 17.3911C56.7615 17.0049 56.8648 16.7265 57.0714 16.5558C57.287 16.3762 57.6283 16.2864 58.0953 16.2864C58.5534 16.2864 58.8902 16.3762 59.1057 16.5558C59.3213 16.7265 59.4291 17.0049 59.4291 17.3911C59.4291 17.7684 59.3213 18.0468 59.1057 18.2264C58.8902 18.3971 58.5534 18.4824 58.0953 18.4824ZM59.2405 19.2638V26H56.9502V19.2638H59.2405Z" fill="#37B7C3"/>
<path d="M7.33357 0.225342V25.4433L0.000244141 32.7764V7.55868L7.33357 0.225342Z" fill="#37B7C3"/>
<path d="M14.6675 14.8921V22.2246H0L7.33252 14.8921H14.6675Z" fill="url(#paint1_linear_508_866)"/>
<path d="M22 7.55956V14.8921L14.6675 22.2246V0.224609L22 7.55956Z" fill="url(#paint2_linear_508_866)"/>
<path d="M14.6675 0.224609V7.55956H0L7.33252 0.224609H14.6675Z" fill="url(#paint3_linear_508_866)"/>
<path d="M0.000244141 9.16795V7.55884H7.33357L0.000244141 9.16795Z" fill="url(#paint4_linear_508_866)"/>
<path d="M0.000244141 23.8342V22.2249H7.33357L0.000244141 23.8342Z" fill="url(#paint5_linear_508_866)"/>
<path d="M14.6662 0.223633H7.33371L6.8269 0.73044H14.1621L21.4947 8.06566V15.3955L21.9988 14.8914V7.55885L14.6662 0.223633ZM7.33371 14.8914V8.06566H6.8269V15.3982H14.1621V14.8914H7.33371ZM6.8269 22.7307V25.9495L7.33371 25.4427V22.7307H6.8269Z" fill="white"/>
<defs>
<linearGradient id="paint0_linear_508_866" x1="27.3496" y1="20.8298" x2="59.2743" y2="20.8298" gradientUnits="userSpaceOnUse">
<stop stop-color="#37B7C3"/>
<stop offset="1" stop-color="white"/>
</linearGradient>
<linearGradient id="paint1_linear_508_866" x1="14.7522" y1="18.5583" x2="0.0482001" y2="18.5583" gradientUnits="userSpaceOnUse">
<stop stop-color="#1A4E6F"/>
<stop offset="0.3" stop-color="#088395"/>
</linearGradient>
<linearGradient id="paint2_linear_508_866" x1="18.3337" y1="0.352982" x2="18.3337" y2="33.5799" gradientUnits="userSpaceOnUse">
<stop stop-color="#088395"/>
<stop offset="1" stop-color="#1A4E6F"/>
</linearGradient>
<linearGradient id="paint3_linear_508_866" x1="0.000107831" y1="3.89208" x2="14.6674" y2="3.89208" gradientUnits="userSpaceOnUse">
<stop offset="0.7" stop-color="#37B7C3"/>
<stop offset="1" stop-color="#071952"/>
</linearGradient>
<linearGradient id="paint4_linear_508_866" x1="3.66694" y1="7.55509" x2="3.66694" y2="9.15779" gradientUnits="userSpaceOnUse">
<stop stop-color="#1F1E21"/>
<stop offset="1" stop-color="#1F1E21" stop-opacity="0"/>
</linearGradient>
<linearGradient id="paint5_linear_508_866" x1="3.66694" y1="22.2954" x2="3.66694" y2="23.8987" gradientUnits="userSpaceOnUse">
<stop stop-color="#1F1E21"/>
<stop offset="1" stop-color="#1F1E21" stop-opacity="0"/>
</linearGradient>
</defs>
</svg>
